<?xml version="1.0" standalone="no"?>
<!DOCTYPE svg PUBLIC "-//W3C//DTD SVG 20010904//EN"
 "http://www.w3.org/TR/2001/REC-SVG-20010904/DTD/svg10.dtd">
<svg version="1.0" xmlns="http://www.w3.org/2000/svg"
 width="260.000000pt" height="260.000000pt" viewBox="0 0 260.000000 260.000000"
 preserveAspectRatio="xMidYMid meet">
<metadata>
Created by potrace 1.11, written by Peter Selinger 2001-2013
</metadata>
<g transform="translate(0.000000,260.000000) scale(0.100000,-0.100000)"
fill="#000000" stroke="none">
<path d="M1863 2575 c0 -8 5 -11 10 -8 6 4 7 1 2 -6 -5 -9 -10 -10 -18 -2 -15
15 -40 14 -31 -1 5 -7 3 -8 -7 -2 -22 14 -61 13 -49 -1 7 -8 4 -11 -10 -10
-11 1 -23 4 -26 8 -4 4 -13 -1 -21 -11 -8 -9 -12 -12 -9 -6 3 7 -1 15 -10 18
-8 3 -12 2 -9 -4 3 -6 1 -10 -4 -10 -6 0 -11 -7 -11 -16 0 -8 -5 -12 -10 -9
-6 4 -8 12 -4 18 3 7 -1 4 -9 -6 -11 -14 -16 -15 -20 -5 -3 8 -6 6 -6 -6 -1
-16 -3 -17 -18 -5 -15 13 -15 12 -3 -11 12 -23 12 -24 -3 -11 -12 9 -17 10
-17 2 0 -7 -4 -10 -9 -6 -6 3 -8 -4 -6 -16 4 -18 2 -19 -12 -7 -9 7 -14 8 -10
2 4 -7 0 -14 -8 -18 -8 -3 -15 -10 -15 -16 0 -6 3 -9 8 -6 4 2 7 -17 6 -44 -2
-38 1 -47 15 -46 9 0 16 -6 16 -16 0 -9 4 -20 9 -25 5 -5 6 -2 2 7 -4 8 0 6 8
-4 13 -16 13 -22 3 -28 -9 -6 -8 -8 3 -8 12 0 12 -2 2 -9 -11 -6 -10 -11 3
-25 14 -14 15 -16 1 -16 -12 0 -14 -5 -6 -25 7 -19 6 -23 -4 -19 -8 3 -17 0
-22 -7 -5 -8 -3 -10 6 -4 10 6 12 4 7 -8 -3 -9 -1 -19 4 -23 7 -4 4 -14 -8
-28 -10 -11 -18 -33 -17 -48 0 -16 -3 -28 -7 -28 -5 0 -9 -5 -9 -11 0 -5 4 -8
8 -5 5 3 9 -1 9 -8 0 -8 -6 -12 -12 -9 -8 2 -12 -5 -11 -19 1 -13 -1 -33 -5
-44 -4 -12 -3 -26 3 -32 9 -9 5 -10 -13 -7 -23 4 -23 4 -5 -10 18 -13 15 -19
-6 -16 -4 0 -5 -9 -3 -20 3 -12 0 -31 -6 -41 -9 -16 -8 -19 3 -12 7 4 4 -3 -7
-16 -11 -13 -14 -20 -7 -16 6 4 12 2 12 -3 0 -6 -4 -11 -9 -11 -5 0 -11 -11
-13 -25 -3 -14 -1 -25 4 -25 5 0 6 -5 3 -10 -4 -6 -11 -7 -17 -4 -6 4 -6 -2 1
-15 8 -15 9 -21 1 -21 -6 0 -8 -4 -5 -10 3 -5 0 -10 -7 -10 -9 0 -9 -3 2 -10
9 -6 11 -10 3 -10 -7 0 -10 -7 -6 -17 4 -11 3 -14 -5 -9 -8 4 -10 2 -6 -8 3
-8 1 -23 -5 -34 -7 -13 -7 -22 0 -29 8 -8 7 -13 -2 -18 -8 -6 -10 -4 -4 5 5 8
4 11 -2 7 -6 -4 -8 -19 -5 -33 4 -20 2 -25 -8 -19 -9 6 -10 3 -2 -11 11 -23 5
-47 -11 -37 -7 4 -6 -1 2 -10 9 -12 10 -17 2 -17 -7 0 -10 -4 -7 -9 4 -5 0
-12 -6 -14 -10 -4 -10 -6 0 -6 9 -1 10 -6 3 -20 -6 -10 -7 -21 -4 -25 3 -3 0
-6 -8 -6 -11 0 -11 -2 1 -10 12 -8 12 -10 -5 -10 -14 0 -16 -3 -7 -9 10 -6 10
-10 -3 -21 -12 -10 -13 -16 -4 -26 6 -8 7 -14 2 -14 -5 0 -9 -10 -8 -23 1 -12
-4 -31 -11 -41 -10 -14 -10 -24 -3 -39 8 -14 8 -18 -1 -12 -7 5 -11 1 -10 -11
4 -32 0 -45 -9 -39 -5 3 -13 0 -17 -6 -4 -8 -3 -9 4 -5 7 4 12 4 13 -1 0 -4 2
-16 4 -26 2 -9 -1 -15 -5 -12 -5 3 -11 1 -15 -5 -3 -5 0 -10 7 -10 10 0 10 -2
0 -9 -8 -4 -13 -11 -13 -15 1 -3 1 -9 0 -13 -1 -5 0 -19 1 -32 1 -17 -2 -21
-12 -15 -9 5 -9 2 2 -11 12 -15 12 -17 1 -10 -11 6 -13 4 -8 -8 4 -10 1 -17
-6 -17 -8 0 -6 -4 3 -10 8 -5 10 -10 4 -10 -7 0 -11 -8 -10 -17 0 -11 -5 -17
-14 -15 -12 3 -12 1 -3 -9 10 -10 9 -15 -5 -26 -9 -8 -11 -11 -4 -8 11 6 11 3
0 -14 -7 -12 -21 -24 -30 -27 -10 -3 -15 -11 -11 -20 4 -10 0 -12 -13 -7 -12
4 -15 3 -10 -5 4 -7 2 -12 -4 -12 -7 0 -10 -7 -6 -15 4 -11 -1 -15 -17 -15
-16 0 -18 -3 -9 -9 7 -4 14 -22 14 -40 1 -23 5 -30 15 -27 8 3 16 -1 20 -9 4
-12 9 -13 18 -5 10 8 15 8 21 -1 5 -8 3 -9 -6 -4 -9 6 -11 4 -5 -5 6 -10 11
-9 22 5 7 11 13 15 13 9 0 -5 18 -10 40 -11 29 -1 38 2 33 10 -4 7 0 6 10 -2
9 -7 17 -10 17 -6 0 4 6 2 14 -4 11 -9 16 -9 22 0 5 8 3 9 -6 4 -9 -6 -11 -4
-6 4 6 9 13 8 29 -6 11 -10 17 -12 13 -5 -6 10 1 12 34 7 24 -4 40 -2 36 3 -3
5 1 9 9 9 8 0 12 -3 10 -6 -2 -3 30 -6 70 -6 44 -1 71 3 68 9 -4 5 -1 6 8 0
24 -15 62 -17 53 -2 -5 10 -4 10 6 1 14 -13 74 3 65 17 -3 5 0 12 6 16 8 4 9
3 5 -4 -10 -17 3 -15 20 2 11 11 11 16 1 19 -9 4 -8 6 2 6 11 1 11 4 0 18 -9
11 -10 14 -2 9 9 -5 11 -2 7 8 -3 9 -10 16 -15 16 -5 0 -9 7 -9 15 0 8 -4 15
-10 15 -5 0 -10 7 -10 16 0 8 -5 12 -11 8 -8 -5 -8 -1 0 13 7 14 7 23 0 30 -8
8 -7 18 1 33 10 18 9 21 -1 15 -9 -6 -11 -3 -6 9 4 10 7 20 7 22 0 3 5 2 11
-2 8 -4 8 -1 1 12 -5 11 -7 25 -4 33 3 9 0 11 -8 6 -9 -5 -11 -4 -6 4 4 6 11
9 16 6 11 -7 17 14 16 53 -1 17 3 32 8 32 4 0 5 7 2 16 -6 15 -4 15 10 3 16
-13 16 -12 5 9 -9 17 -9 22 1 22 9 0 9 3 -2 10 -9 6 -11 10 -3 10 7 0 10 7 7
15 -4 8 -1 15 5 15 13 0 10 22 -4 32 -6 5 -5 8 3 8 6 0 12 9 12 21 0 11 5 17
10 14 13 -8 8 17 -5 27 -6 5 -5 11 4 17 8 5 11 16 8 25 -3 8 -1 18 5 22 7 5 8
2 3 -7 -5 -8 -4 -11 1 -6 12 12 12 30 -1 39 -7 5 -6 8 1 8 7 0 11 15 10 36 -1
20 3 38 8 41 5 4 6 1 2 -5 -5 -8 -2 -10 9 -6 14 6 14 8 -1 19 -16 11 -16 12 0
18 10 4 14 12 11 17 -4 6 -1 18 7 27 9 12 9 15 1 9 -9 -5 -11 -2 -7 8 3 9 13
16 22 16 13 0 12 3 -4 15 -13 11 -14 14 -4 13 10 -2 14 4 12 16 -3 17 -2 18
12 7 14 -12 16 -11 10 3 -3 9 -1 16 6 16 6 0 8 4 5 10 -3 5 -1 18 5 27 10 16
11 16 6 -2 -6 -19 -5 -19 8 -2 15 19 31 24 20 5 -4 -7 -3 -8 4 -4 7 4 12 14
12 22 0 8 5 14 11 14 5 0 7 -4 4 -10 -3 -6 4 -10 17 -10 13 0 30 -5 38 -11 12
-8 9 -9 -10 -4 -21 5 -22 4 -7 -5 9 -6 15 -15 12 -21 -4 -5 -2 -9 4 -9 10 0 9
-19 -2 -37 -5 -8 -3 -13 3 -13 7 0 5 -7 -4 -16 -21 -21 -20 -30 1 -13 15 13
15 12 3 -8 -8 -12 -19 -19 -25 -15 -5 3 -4 -1 3 -10 9 -11 9 -17 2 -20 -6 -2
-12 -13 -13 -26 0 -12 -6 -22 -12 -22 -5 0 -3 -5 5 -10 10 -6 11 -10 3 -10 -7
0 -13 -5 -13 -11 0 -5 6 -7 13 -4 6 4 5 1 -4 -7 -9 -7 -17 -16 -17 -20 -1 -5
-2 -9 -3 -10 -4 -16 -10 -46 -11 -58 0 -8 -6 -21 -12 -29 -9 -12 -8 -13 4 -6
13 8 13 6 1 -8 -7 -9 -11 -23 -8 -31 4 -10 1 -13 -7 -10 -7 3 -13 -2 -13 -10
0 -8 5 -12 11 -9 6 4 3 -2 -6 -13 -13 -14 -14 -23 -6 -38 7 -13 7 -17 0 -12
-11 7 -28 -31 -18 -41 3 -3 -2 -12 -12 -20 -9 -8 -11 -12 -4 -8 7 4 12 0 12
-9 0 -9 -4 -16 -10 -16 -5 0 -10 -5 -10 -11 0 -5 6 -7 13 -3 7 5 7 1 -2 -10
-13 -15 -13 -19 0 -28 11 -7 8 -8 -9 -5 -23 6 -24 5 -5 -15 10 -12 12 -18 6
-14 -7 4 -13 2 -13 -3 0 -6 6 -11 13 -11 8 0 8 -3 1 -8 -15 -10 -11 -72 6 -82
12 -8 11 -10 -5 -10 -17 -1 -18 -2 -5 -13 8 -7 17 -25 19 -42 3 -31 18 -48 35
-38 5 3 6 1 2 -6 -4 -6 -12 -9 -17 -6 -20 13 -7 -9 24 -38 17 -17 26 -27 20
-23 -8 4 -13 2 -13 -5 0 -7 10 -9 24 -7 16 3 27 0 30 -9 4 -9 1 -12 -7 -8 -6
4 -4 0 5 -8 10 -8 14 -18 10 -22 -4 -5 -1 -5 6 -1 7 4 10 11 7 16 -3 5 0 12 6
16 7 4 9 3 6 -3 -4 -6 6 -19 21 -28 l27 -18 -20 23 -20 23 23 -14 c12 -8 22
-17 22 -21 0 -5 5 -8 11 -8 5 0 8 4 5 8 -3 5 2 9 10 9 8 0 13 -6 10 -13 -3 -8
0 -16 6 -20 6 -4 9 -3 6 2 -3 5 1 16 10 24 14 13 15 12 9 -3 -3 -9 -1 -19 5
-23 7 -4 8 -3 4 4 -5 8 2 12 19 12 18 0 24 -4 19 -12 -6 -10 -4 -10 7 -1 7 7
21 13 30 13 10 0 21 5 25 12 5 7 3 8 -6 3 -9 -5 -11 -4 -6 4 6 9 11 9 24 -1
13 -11 14 -11 7 1 -6 11 -4 13 8 8 9 -3 18 -1 21 6 3 9 5 9 5 0 1 -7 6 -13 13
-13 6 0 9 2 6 5 -3 3 4 17 16 30 14 16 23 20 28 12 8 -12 13 5 9 27 -1 5 5 6
13 3 9 -4 15 -1 13 6 -1 7 7 11 18 9 17 -2 17 -1 5 8 -13 8 -13 11 -1 19 8 5
10 14 6 21 -5 8 -4 11 3 6 14 -9 31 22 25 45 -4 14 0 19 13 19 16 0 17 2 4 10
-13 9 -13 10 0 10 13 0 13 1 0 10 -13 8 -12 10 4 10 19 0 19 0 1 14 -18 13
-18 13 1 24 14 8 15 12 4 12 -13 0 -13 1 0 10 8 5 10 10 4 10 -7 0 -11 7 -10
16 2 27 -34 25 -46 -1 -6 -14 -15 -22 -19 -19 -5 3 -9 -1 -9 -8 0 -8 -5 -6
-11 5 -6 9 -15 15 -21 11 -7 -4 -7 0 -1 12 5 11 8 31 7 47 -2 19 1 25 9 20 8
-4 8 -1 -1 9 -10 12 -10 17 -1 20 7 2 13 12 15 21 1 9 -2 15 -7 11 -5 -3 -6
-10 -3 -16 5 -7 2 -8 -5 -4 -10 6 -9 12 2 24 21 25 32 46 19 39 -6 -5 -8 0 -5
13 3 11 9 20 14 20 5 0 9 5 9 11 0 5 -4 7 -10 4 -5 -3 -10 -1 -10 5 0 6 7 13
16 17 13 5 13 7 2 14 -8 6 -9 9 -2 9 7 0 11 14 10 35 -1 19 2 35 6 35 5 0 8 5
8 11 0 5 -6 7 -12 4 -7 -4 -5 0 6 9 10 8 16 22 13 30 -4 9 -3 17 1 20 4 2 9
19 10 38 2 18 7 35 12 36 6 2 10 8 10 13 0 6 -6 7 -12 4 -7 -4 -4 1 6 9 11 9
15 16 8 16 -6 0 -9 7 -6 15 4 8 11 12 18 8 7 -5 7 -2 -1 8 -14 18 -11 51 5 57
7 2 12 8 12 13 0 6 -4 8 -9 4 -5 -3 -13 -1 -16 5 -4 6 -1 9 7 8 10 -2 14 23
16 115 2 94 0 117 -10 111 -10 -5 -10 -4 -2 5 14 15 6 53 -9 44 -6 -4 -8 0 -4
10 3 10 2 17 -3 17 -5 0 -6 7 -3 17 4 11 3 14 -5 9 -8 -5 -12 0 -12 13 0 12
-9 30 -20 41 -11 11 -20 26 -20 33 0 8 -4 7 -11 -3 -9 -12 -10 -11 -6 8 3 12
1 19 -4 16 -6 -3 -19 6 -30 21 -17 20 -24 23 -35 14 -9 -7 -14 -8 -14 -1 0 5
-17 9 -37 8 -21 -2 -44 2 -50 7 -7 5 -13 6 -13 1 0 -5 -19 -9 -42 -9 -47 0
-78 -13 -78 -32 0 -7 -5 -13 -11 -13 -5 0 -7 5 -3 11 4 7 1 10 -7 7 -8 -3 -13
-10 -12 -16 2 -6 -6 -9 -17 -7 -13 3 -17 -1 -13 -11 3 -10 -2 -14 -18 -15 -13
0 -18 -3 -11 -6 9 -3 7 -10 -9 -24 -12 -10 -25 -16 -30 -13 -5 3 -6 -1 -3 -9
3 -8 0 -18 -7 -23 -8 -5 -10 -3 -4 6 5 9 4 11 -4 6 -9 -6 -9 -11 0 -22 7 -9 8
-14 3 -13 -25 4 -32 -3 -29 -28 2 -16 2 -22 -1 -15 -3 6 -11 9 -17 5 -8 -5 -8
-2 0 9 7 8 10 18 6 21 -3 4 0 13 7 22 11 13 10 15 -6 9 -15 -4 -13 -1 6 16 14
12 19 19 13 15 -7 -3 -13 -2 -13 2 0 5 6 15 13 22 10 11 9 12 -3 6 -13 -7 -13
-6 -2 7 7 8 9 24 5 33 -4 12 -3 16 4 12 7 -5 9 1 5 15 -4 15 -2 19 7 13 10 -5
11 -2 6 14 -4 14 -2 21 6 21 10 0 10 3 1 12 -9 9 -8 16 6 32 9 11 11 16 5 12
-19 -10 -16 4 5 27 9 11 11 17 5 13 -7 -4 -13 -2 -13 3 0 6 4 11 9 11 5 0 8 8
6 18 -1 9 3 23 9 31 9 12 8 13 -4 6 -13 -8 -13 -7 -1 8 7 9 10 17 5 17 -4 0 1
7 12 16 15 13 16 15 2 10 -12 -3 -15 -1 -11 10 3 7 8 14 12 14 11 0 9 115 -3
122 -8 5 -7 8 2 8 19 0 14 25 -8 45 -15 14 -17 21 -9 32 9 10 8 13 0 13 -7 0
-9 5 -5 13 5 7 0 6 -11 -3 -17 -14 -18 -14 -7 7 11 20 10 21 -9 18 -18 -4 -19
-2 -7 12 7 10 8 14 1 10 -6 -4 -18 0 -26 8 -9 8 -21 15 -27 15 -6 0 -8 6 -4
13 4 6 4 9 -1 5 -4 -4 -17 -2 -29 4 -18 10 -19 9 -8 -4 10 -13 9 -15 -14 -10
-19 3 -23 7 -12 14 9 6 6 7 -10 3 -13 -4 -29 -2 -36 4 -9 8 -13 7 -13 -4z
m373 -607 c4 -7 3 -8 -4 -4 -7 4 -12 2 -12 -5 0 -7 -3 -10 -6 -6 -6 5 3 27 11
27 2 0 7 -5 11 -12z m213 -2 c9 -11 9 -16 -1 -22 -7 -4 -10 -4 -6 1 4 4 3 14
-3 22 -6 7 -9 13 -6 13 2 0 10 -6 16 -14z m-429 -1346 c0 -5 -2 -10 -4 -10 -3
0 -8 5 -11 10 -3 6 -1 10 4 10 6 0 11 -4 11 -10z m290 -94 c0 -2 -7 -7 -16
-10 -8 -3 -12 -2 -9 4 6 10 25 14 25 6z"/>
<path d="M1560 2109 c0 -5 5 -7 10 -4 6 3 10 8 10 11 0 2 -4 4 -10 4 -5 0 -10
-5 -10 -11z"/>
<path d="M741 1997 c-6 -8 -7 -18 -3 -22 4 -5 1 -5 -6 -1 -7 4 -10 12 -7 17 4
5 -5 4 -19 -2 -20 -10 -29 -9 -43 2 -10 8 -14 9 -10 2 5 -8 0 -12 -15 -11 -40
2 -48 -2 -48 -19 0 -14 -2 -15 -9 -4 -7 10 -9 11 -13 1 -2 -8 -12 -14 -21 -16
-9 -1 -15 1 -12 5 2 4 -2 8 -10 8 -8 0 -12 -4 -9 -9 3 -4 0 -8 -6 -8 -6 0 -8
-5 -4 -12 4 -7 3 -8 -5 -4 -6 4 -18 3 -25 -3 -8 -7 -20 -10 -27 -9 -8 2 -13
-1 -12 -7 0 -5 -6 -17 -15 -25 -14 -13 -15 -12 -9 4 6 16 5 17 -8 6 -8 -7 -12
-17 -8 -23 3 -6 1 -7 -5 -3 -7 4 -12 2 -12 -3 0 -6 -4 -11 -10 -11 -5 0 -7 8
-4 18 5 13 4 14 -4 3 -6 -8 -8 -20 -5 -28 3 -8 0 -13 -8 -11 -8 2 -13 -5 -13
-15 2 -15 -1 -16 -15 -5 -9 7 -13 8 -9 4 4 -5 -2 -22 -14 -38 -16 -23 -23 -27
-29 -16 -7 10 -9 9 -9 -5 0 -10 -7 -20 -16 -24 -13 -5 -13 -7 -2 -14 10 -7 9
-9 -4 -9 -10 0 -18 -5 -18 -11 0 -5 -4 -8 -9 -5 -5 3 -12 -1 -15 -10 -4 -10
-1 -13 7 -9 6 3 2 -2 -11 -11 -12 -9 -22 -22 -22 -29 0 -8 -6 -16 -12 -18 -10
-4 -10 -6 0 -6 10 -1 10 -4 0 -15 -7 -8 -16 -12 -21 -9 -4 2 -7 -1 -7 -6 0 -6
5 -11 11 -11 5 0 7 -5 4 -11 -4 -6 -14 -8 -22 -4 -13 4 -14 3 -3 -10 9 -11 10
-15 0 -15 -6 0 -10 -6 -7 -12 2 -7 -2 -18 -10 -23 -8 -6 -15 -23 -16 -38 -1
-15 -7 -31 -13 -35 -15 -10 -26 -54 -11 -45 8 4 8 2 0 -9 -7 -8 -10 -18 -6
-22 4 -3 -2 -12 -12 -20 -14 -10 -15 -15 -5 -21 9 -6 11 -4 5 5 -5 8 -4 11 3
6 6 -4 9 -13 6 -21 -4 -8 -10 -12 -15 -9 -5 3 -9 0 -9 -5 0 -6 5 -11 11 -11 6
0 3 -7 -5 -16 -18 -17 -21 -28 -6 -19 6 3 10 2 10 -4 0 -5 -4 -13 -10 -16 -5
-3 -10 -11 -10 -16 0 -6 6 -7 13 -3 9 6 9 4 1 -7 -6 -8 -10 -33 -9 -57 2 -38
1 -41 -14 -30 -14 12 -15 11 -2 -5 8 -10 15 -35 16 -56 1 -20 5 -43 10 -51 8
-13 6 -13 -8 -1 -15 12 -16 11 -6 -18 6 -17 8 -38 5 -46 -3 -8 -1 -15 5 -15 6
0 7 -4 4 -10 -3 -5 -1 -10 5 -10 6 0 8 -4 5 -10 -3 -5 -1 -10 4 -10 6 0 11 -5
11 -11 0 -5 -6 -7 -12 -3 -9 6 -9 3 0 -9 8 -9 11 -21 7 -27 -3 -5 -1 -10 5
-10 6 0 8 -4 5 -10 -3 -5 -1 -10 5 -10 6 0 8 -4 5 -10 -3 -5 2 -10 12 -10 15
0 16 -2 3 -10 -13 -8 -12 -10 3 -10 9 0 17 -5 17 -11 0 -5 -4 -7 -10 -4 -6 3
-7 -1 -4 -9 3 -9 14 -16 23 -16 14 0 14 -2 1 -10 -13 -8 -12 -10 2 -10 10 0
17 -6 15 -12 -1 -7 4 -12 12 -10 8 2 11 -3 8 -12 -4 -9 -2 -18 3 -21 5 -3 11
3 14 12 3 10 4 6 2 -8 -3 -27 21 -37 37 -15 5 6 5 0 2 -13 -5 -16 -4 -21 4
-17 6 4 11 1 11 -8 0 -8 5 -18 12 -22 7 -5 8 -3 3 6 -6 10 -4 12 7 7 9 -3 20
-1 26 5 8 8 10 4 6 -13 -2 -13 -1 -18 2 -11 5 10 9 9 19 -5 7 -10 26 -19 42
-19 15 -1 42 -2 58 -3 24 -1 27 -3 15 -12 -13 -9 -12 -10 2 -5 10 3 20 1 23
-4 3 -5 17 -7 31 -4 14 3 32 0 40 -7 8 -6 15 -9 15 -5 1 3 2 10 3 15 0 5 5 13
10 18 5 4 6 3 3 -3 -4 -7 -1 -17 7 -23 11 -9 14 -8 12 5 0 9 5 19 12 21 6 3
12 0 12 -7 0 -6 -5 -8 -12 -4 -9 5 -9 2 1 -9 13 -17 26 -24 17 -9 -2 4 7 12
20 19 13 6 22 8 19 3 -6 -10 21 -21 29 -12 7 6 31 13 58 15 9 1 14 6 11 11 -4
5 3 7 14 4 22 -6 57 24 45 38 -4 3 4 1 17 -6 19 -10 22 -10 16 1 -6 9 -3 11 8
6 10 -4 22 1 31 14 11 16 20 19 37 14 22 -7 22 -7 6 9 -21 21 -23 33 -3 16 12
-9 17 -8 27 8 7 12 19 18 28 14 10 -4 13 -1 8 11 -4 11 2 19 21 26 15 5 20 10
12 11 -8 1 -4 5 10 9 14 4 24 13 22 20 -1 6 5 14 13 17 8 3 12 10 9 15 -3 5 2
12 10 15 9 3 14 10 11 14 -3 5 4 12 16 15 17 6 19 9 8 16 -11 7 -10 9 5 9 12
0 16 5 12 15 -3 8 -1 15 5 15 6 0 7 6 3 13 -6 9 -5 9 7 0 13 -10 15 -8 13 17
-1 21 2 27 12 23 9 -3 14 0 12 8 -2 8 3 13 10 11 8 -1 11 2 7 8 -3 6 -12 7
-18 3 -7 -3 -4 3 6 14 9 11 17 25 17 32 0 7 5 9 10 6 6 -3 10 -1 10 4 0 6 -6
11 -12 11 -8 1 -6 6 5 14 17 13 25 32 9 22 -5 -3 -9 1 -9 9 0 7 8 12 19 10 14
-3 16 0 9 12 -6 11 -4 21 6 31 12 12 12 16 1 23 -12 8 -4 13 15 10 4 -1 3 8
-3 19 -9 16 -8 19 6 13 14 -5 15 -3 5 15 -7 13 -7 23 -1 27 5 3 7 12 3 20 -3
8 0 15 7 15 10 0 10 3 1 14 -8 9 -8 15 -1 18 5 1 12 13 15 26 3 15 0 20 -8 16
-9 -5 -9 -4 0 6 10 11 9 16 -5 27 -13 10 -13 13 -2 11 17 -4 21 21 6 41 -8 11
-8 13 0 8 8 -5 11 5 11 28 -1 19 -6 35 -12 35 -5 0 -4 4 3 9 17 11 17 21 0 32
-10 7 -10 9 0 9 6 0 12 5 12 11 0 5 -5 7 -11 3 -8 -5 -8 -1 0 14 8 15 8 23 -1
28 -7 4 -8 3 -4 -4 4 -7 2 -12 -3 -12 -14 0 -14 6 -1 31 8 15 7 21 -4 25 -8 3
-17 12 -20 19 -3 9 0 12 10 8 14 -5 14 -3 3 15 -7 11 -18 18 -24 14 -5 -3 -3
3 5 13 9 11 10 16 3 11 -9 -5 -13 1 -13 18 0 18 -5 26 -17 26 -15 0 -16 2 -3
10 12 8 12 10 -5 10 -13 0 -16 3 -8 8 9 6 7 12 -7 22 -11 8 -20 24 -20 35 0
17 -2 18 -11 5 -9 -12 -10 -11 -6 7 3 15 1 20 -9 16 -8 -3 -14 0 -14 7 0 6 -4
8 -10 5 -5 -3 -10 -1 -10 5 0 6 -4 8 -10 5 -6 -4 -7 1 -3 11 5 14 2 16 -15 12
-12 -4 -25 -1 -29 4 -3 7 -1 8 5 4 7 -4 12 -2 12 3 0 6 -12 11 -26 11 -14 0
-23 4 -19 10 5 9 -32 16 -59 11 -5 -1 -6 5 -3 13 4 10 1 13 -10 9 -8 -3 -19 0
-24 8 -7 12 -9 12 -9 0 0 -11 -4 -10 -16 5 -8 10 -13 13 -9 7 3 -7 1 -13 -5
-13 -6 0 -8 -5 -4 -12 4 -7 3 -8 -5 -4 -6 4 -9 11 -6 16 3 5 -9 9 -28 8 -19
-1 -40 3 -47 7 -8 5 -11 4 -6 -3 3 -6 -1 -9 -11 -7 -10 2 -22 4 -26 4 -5 1 -5
6 -2 11 9 15 -1 12 -14 -3z m-117 -38 c-3 -5 -10 -7 -15 -3 -5 3 -7 10 -3 15
3 5 10 7 15 3 5 -3 7 -10 3 -15z m135 -220 c-8 -5 -9 -9 -3 -9 5 0 15 5 22 12
16 16 16 -4 0 -21 -11 -11 -10 -13 4 -8 10 3 20 2 23 -3 4 -6 0 -10 -7 -11
-10 0 -11 -2 0 -6 10 -4 10 -8 0 -21 -8 -9 -8 -13 -2 -9 7 4 15 0 18 -9 3 -8
2 -12 -4 -9 -13 8 -13 -1 2 -28 10 -19 9 -20 -4 -10 -12 10 -15 10 -15 -2 0
-8 4 -15 9 -15 4 0 8 -5 8 -11 0 -5 -5 -7 -11 -3 -7 4 -7 -1 1 -16 8 -15 8
-20 1 -16 -7 5 -10 -1 -7 -16 2 -13 -1 -31 -6 -40 -6 -13 -5 -18 4 -18 8 -1 5
-7 -6 -15 -12 -9 -15 -15 -7 -15 11 0 11 -3 1 -15 -7 -8 -10 -22 -6 -30 3 -8
0 -15 -7 -15 -8 0 -6 -4 3 -10 8 -5 10 -10 4 -10 -6 0 -11 -10 -10 -22 1 -13
-7 -29 -19 -36 -15 -10 -16 -12 -2 -8 9 3 17 1 17 -4 0 -6 -4 -10 -9 -10 -6 0
-8 -9 -6 -20 2 -11 0 -20 -5 -20 -4 0 -6 -13 -4 -30 4 -24 2 -30 -13 -30 -10
0 -14 -4 -8 -8 13 -9 18 -35 6 -28 -5 4 -10 -2 -10 -11 -3 -78 -6 -91 -20 -80
-12 10 -12 9 -2 -12 7 -13 8 -21 3 -17 -6 4 -11 -2 -11 -11 -1 -34 -13 -83
-21 -83 -5 0 -7 -11 -4 -24 2 -14 -1 -28 -7 -32 -8 -5 -9 -3 -4 6 5 9 4 11 -4
6 -9 -6 -9 -11 -1 -21 8 -9 6 -17 -5 -29 -9 -9 -21 -14 -26 -10 -5 3 -9 2 -8
-3 4 -15 -13 -62 -26 -73 -10 -8 -16 -7 -24 7 -6 10 -11 12 -11 6 0 -7 -5 -13
-11 -13 -5 0 -7 5 -4 10 3 6 3 10 -2 10 -4 0 -16 12 -26 25 -16 22 -16 24 -1
18 14 -5 15 -3 5 15 -7 12 -9 22 -5 22 3 0 0 8 -7 17 -8 9 -9 14 -3 10 7 -4
14 2 17 13 3 11 1 18 -3 15 -13 -8 -6 21 9 39 12 14 12 16 -3 10 -9 -3 -16 -1
-16 5 0 6 6 11 14 11 10 0 12 7 8 22 -4 16 -2 19 9 13 11 -6 11 -5 2 5 -9 9
-9 19 -2 33 8 14 8 18 -1 12 -7 -4 -5 5 4 23 15 28 15 32 -2 48 -16 17 -16 17
0 11 10 -3 20 -2 23 3 4 6 1 10 -6 10 -8 0 -8 4 -1 13 6 6 9 29 8 49 0 20 3
36 8 35 5 -1 11 4 13 11 3 6 -1 12 -9 12 -10 0 -9 3 2 10 9 5 16 27 17 52 4
58 5 67 12 66 19 -2 24 4 11 12 -11 8 -12 12 -3 18 7 4 11 18 8 30 -2 12 1 25
7 28 7 4 8 2 4 -4 -5 -8 -1 -10 10 -5 15 6 15 7 0 15 -13 7 -14 13 -6 23 7 8
9 19 5 25 -3 5 -1 10 6 10 7 0 9 3 6 7 -4 3 1 12 11 20 9 8 11 12 5 8 -7 -3
-13 -1 -13 4 0 6 5 11 11 11 6 0 9 7 5 15 -3 9 3 20 14 27 14 9 16 16 8 25 -8
10 -4 15 13 22 13 5 17 10 9 11 -8 0 -1 9 18 21 17 12 32 25 32 31 0 5 5 6 11
2 8 -4 7 -9 -2 -15z m516 -439 c-3 -5 -12 -10 -18 -10 -7 0 -6 4 3 10 19 12
23 12 15 0z m-508 -745 c0 -8 -4 -12 -9 -9 -5 3 -6 10 -3 15 9 13 12 11 12 -6z
m-421 -7 c3 -4 -1 -5 -10 -4 -8 1 -18 5 -22 8 -3 4 1 5 10 4 8 -1 18 -5 22 -8z
m315 -25 c-12 -20 -14 -14 -5 12 4 9 9 14 11 11 3 -2 0 -13 -6 -23z m49 12 c0
-2 -6 -5 -13 -8 -8 -3 -14 1 -14 8 0 7 6 11 14 8 7 -3 13 -6 13 -8z m-252 -20
c-3 -3 -9 2 -12 12 -6 14 -5 15 5 6 7 -7 10 -15 7 -18z m32 11 c0 -3 -4 -8
-10 -11 -5 -3 -10 -1 -10 4 0 6 5 11 10 11 6 0 10 -2 10 -4z m34 -12 c3 -8 2
-12 -4 -9 -6 3 -10 10 -10 16 0 14 7 11 14 -7z"/>
<path d="M283 1795 c-7 -8 -9 -16 -4 -19 5 -3 12 1 15 10 8 22 4 25 -11 9z"/>
<path d="M2583 1455 c0 -8 4 -12 9 -9 5 3 6 10 3 15 -9 13 -12 11 -12 -6z"/>
<path d="M2577 643 c-9 -17 -1 -67 11 -71 9 -3 12 7 11 37 -3 38 -12 52 -22
34z"/>
</g>
</svg>
